<?xml version="1.0" encoding="utf-8"?>
<!-- Generator: Adobe Illustrator 25.2.1, SVG Export Plug-In . SVG Version: 6.00 Build 0)  -->
<svg version="1.1" id="Layer_1" xmlns="http://www.w3.org/2000/svg" xmlns:xlink="http://www.w3.org/1999/xlink" x="0px" y="0px"
	 viewBox="0 0 200 48" style="enable-background:new 0 0 200 48;" xml:space="preserve">
<style type="text/css">
	.st0{fill:#FFFFFF;}
</style>
<path class="st0" d="M3.35,37.63V11.89h7.01c2.77,0,4.95,0.19,6.54,0.58s2.99,1.03,4.2,1.93c1.56,1.16,2.74,2.62,3.54,4.39
	s1.2,3.77,1.2,6.02c0,2.29-0.41,4.31-1.23,6.07s-2.02,3.22-3.6,4.37c-1.17,0.84-2.48,1.45-3.91,1.82s-3.54,0.55-6.3,0.55H8.85H3.35z
	 M8.85,32.99h3.06c2.88,0,4.98-0.66,6.3-1.97s1.98-3.39,1.98-6.24c0-2.84-0.66-4.91-1.98-6.23s-3.42-1.98-6.3-1.98H8.85V32.99z"/>
<path class="st0" d="M46.85,30.24H33.9c0.2,1.24,0.65,2.17,1.35,2.79s1.66,0.92,2.87,0.92c0.91,0,1.7-0.18,2.36-0.53
	s1.22-0.88,1.66-1.6l4.04,2.02c-0.94,1.51-2.07,2.63-3.41,3.37s-2.92,1.1-4.76,1.1c-2.79,0-5-0.83-6.63-2.5s-2.44-3.9-2.44-6.71
	c0-2.71,0.85-4.93,2.56-6.68s3.89-2.62,6.55-2.62c2.74,0,4.91,0.82,6.5,2.45s2.39,3.86,2.39,6.69c0,0.15-0.01,0.32-0.02,0.5
	S46.89,29.89,46.85,30.24z M41.9,27.22c-0.14-1.09-0.54-1.91-1.19-2.47s-1.54-0.83-2.66-0.83s-2.02,0.28-2.7,0.83
	s-1.1,1.38-1.29,2.47H41.9z"/>
<path class="st0" d="M48.96,34.6l3.85-1.99c0.13,0.67,0.47,1.2,1.04,1.58s1.26,0.58,2.09,0.58c0.82,0,1.46-0.15,1.93-0.45
	s0.7-0.71,0.7-1.24c0-0.83-0.83-1.53-2.5-2.09c-0.52-0.18-0.93-0.32-1.23-0.44c-2.03-0.76-3.43-1.53-4.21-2.3s-1.17-1.73-1.17-2.87
	c0-1.69,0.66-3.05,1.99-4.1s3.07-1.56,5.24-1.56c1.55,0,2.89,0.31,4.02,0.93s1.95,1.5,2.47,2.64l-3.67,1.83
	c-0.2-0.64-0.54-1.13-1.04-1.47s-1.11-0.5-1.85-0.5s-1.34,0.15-1.79,0.46s-0.69,0.7-0.69,1.2c0,0.86,1.14,1.65,3.41,2.39
	c0.27,0.08,0.47,0.15,0.62,0.19c1.89,0.62,3.23,1.34,4.03,2.17s1.2,1.88,1.2,3.16c0,1.71-0.66,3.07-1.99,4.08s-3.11,1.51-5.36,1.51
	c-1.78,0-3.3-0.33-4.56-0.99S49.39,35.75,48.96,34.6z"/>
<path class="st0" d="M67.26,37.63V20.38h4.99v17.24H67.26z"/>
<path class="st0" d="M67.26,17v-5h4.99v5H67.26z"/>
<path class="st0" d="M94.58,37.34c0,1.82-0.11,3.09-0.33,3.83s-0.59,1.38-1.12,1.92c-0.75,0.81-1.71,1.41-2.88,1.79
	s-2.6,0.58-4.27,0.58c-2.8,0-4.93-0.45-6.38-1.34s-2.24-2.24-2.37-4.06h5.5c0.08,0.67,0.39,1.16,0.91,1.48s1.31,0.47,2.34,0.47
	c1.36,0,2.34-0.35,2.94-1.05s0.91-1.88,0.91-3.52v-2.46c-0.67,1.07-1.47,1.86-2.42,2.37s-2.06,0.77-3.35,0.77
	c-2.37,0-4.26-0.83-5.68-2.49s-2.13-3.89-2.13-6.71c0-2.86,0.69-5.1,2.07-6.71s3.29-2.43,5.73-2.43c1.25,0,2.37,0.29,3.35,0.87
	s1.8,1.43,2.45,2.56v-2.85h4.71V37.34z M90.04,28.98c0-1.52-0.39-2.72-1.16-3.6s-1.83-1.32-3.16-1.32c-1.37,0-2.44,0.44-3.22,1.31
	s-1.16,2.08-1.16,3.61s0.38,2.73,1.14,3.59s1.83,1.28,3.2,1.28s2.44-0.43,3.21-1.28S90.04,30.51,90.04,28.98z"/>
<path class="st0" d="M99.52,37.63V20.38h4.9v2.71c0.9-1.12,1.87-1.95,2.91-2.49s2.19-0.8,3.45-0.8c1.34,0,2.46,0.23,3.37,0.68
	s1.63,1.14,2.15,2.07c0.26,0.48,0.44,1.02,0.55,1.63s0.17,1.55,0.17,2.84v0.54v10.07h-5.01V29.1c0-2.12-0.25-3.52-0.74-4.2
	s-1.34-1.02-2.53-1.02c-0.69,0-1.33,0.14-1.91,0.43s-1.06,0.69-1.45,1.22c-0.3,0.41-0.52,0.88-0.66,1.41s-0.2,1.33-0.2,2.41v0.69
	v7.59H99.52z"/>
<path class="st0" d="M122.21,46V11.89h5.71l11.39,14.98c0.33,0.42,0.69,1.02,1.08,1.78s0.8,1.67,1.22,2.72
	c-0.13-0.76-0.22-1.52-0.28-2.27s-0.09-1.69-0.09-2.81V4h5.26v33.63h-5.4L129.4,22.37c-0.33-0.42-0.69-1.02-1.07-1.78
	s-0.8-1.68-1.23-2.75c0.13,0.74,0.22,1.49,0.28,2.24s0.09,1.71,0.09,2.86V46H122.21z"/>
<path class="st0" d="M168.64,30.24h-12.96c0.2,1.24,0.65,2.17,1.35,2.79s1.66,0.92,2.87,0.92c0.91,0,1.7-0.18,2.36-0.53
	s1.22-0.88,1.66-1.6l4.04,2.02c-0.94,1.51-2.07,2.63-3.41,3.37s-2.92,1.1-4.76,1.1c-2.79,0-5-0.83-6.63-2.5s-2.44-3.9-2.44-6.71
	c0-2.71,0.85-4.93,2.56-6.68s3.89-2.62,6.55-2.62c2.74,0,4.91,0.82,6.5,2.45s2.39,3.86,2.39,6.69c0,0.15-0.01,0.32-0.02,0.5
	S168.67,29.89,168.64,30.24z M163.68,27.22c-0.14-1.09-0.54-1.91-1.19-2.47s-1.54-0.83-2.66-0.83s-2.02,0.28-2.7,0.83
	s-1.1,1.38-1.29,2.47H163.68z"/>
<path class="st0" d="M170.75,34.6l3.85-1.99c0.13,0.67,0.47,1.2,1.04,1.58s1.26,0.58,2.09,0.58c0.82,0,1.46-0.15,1.93-0.45
	s0.7-0.71,0.7-1.24c0-0.83-0.83-1.53-2.5-2.09c-0.52-0.18-0.93-0.32-1.23-0.44c-2.03-0.76-3.43-1.53-4.21-2.3s-1.17-1.73-1.17-2.87
	c0-1.69,0.66-3.05,1.99-4.1s3.07-1.56,5.24-1.56c1.55,0,2.89,0.31,4.02,0.93s1.95,1.5,2.47,2.64l-3.67,1.83
	c-0.2-0.64-0.54-1.13-1.04-1.47s-1.11-0.5-1.85-0.5s-1.34,0.15-1.79,0.46s-0.69,0.7-0.69,1.2c0,0.86,1.14,1.65,3.41,2.39
	c0.27,0.08,0.47,0.15,0.62,0.19c1.89,0.62,3.23,1.34,4.03,2.17s1.2,1.88,1.2,3.16c0,1.71-0.66,3.07-1.99,4.08s-3.11,1.51-5.36,1.51
	c-1.78,0-3.3-0.33-4.56-0.99S171.17,35.75,170.75,34.6z"/>
<path class="st0" d="M189.47,37.63V24.3h-2.41v-3.92h2.41V4h5.01v16.38h2.41v3.92h-2.41v13.32H189.47z"/>
</svg>
